<svg viewBox="0 0 32 32" xmlns="http://www.w3.org/2000/svg"><g id="Fishing_Hook" fill="#2b3344" data-name="Fishing Hook"><path d="m11.9 27.751a6.776 6.776 0 0 1 -6.234-9.409l1.834-4.361a1 1 0 0 1 1.913.256l.431 3.227a1 1 0 0 1 -1.886.58l-.453 1.075a4.777 4.777 0 1 0 8.8 3.71l6.056-14.349a1 1 0 0 1 1.843.778l-6.048 14.348a6.789 6.789 0 0 1 -6.256 4.145z"/><path d="m24.034 9.9a2.827 2.827 0 0 1 -2.6-3.927 2.829 2.829 0 1 1 2.6 3.927zm-.76-3.15a.829.829 0 1 0 1.086-.443.831.831 0 0 0 -1.086.443z"/></g></svg>