<svg height="370pt" viewBox="0 -1 370.60099 370" width="370pt" xmlns="http://www.w3.org/2000/svg"><path d="m360.414062 168.238281c-6.605468-11.878906-16.230468-21.964843-27.804687-29.132812-.050781-.054688-.101563-.054688-.203125-.105469-.152344-.101562-.308594-.152344-.460938-.253906-.101562-.050782-.207031-.101563-.308593-.15625-.152344-.050782-.304688-.152344-.460938-.203125-.101562-.050781-.253906-.101563-.355469-.152344-.15625-.050781-.257812-.101563-.410156-.15625-.15625-.050781-.308594-.101563-.460937-.101563-.101563-.050781-.257813-.050781-.359375-.101562-.152344-.050781-.308594-.050781-.511719-.050781-.101563 0-.207031-.050781-.359375-.050781-.203125 0-.359375 0-.5625-.050782-.050781 0-.152344 0-.203125 0-.054687 0-.105469 0-.15625 0-.152344 0-.359375 0-.511719.050782-.101562 0-.253906 0-.359375.050781-.152343 0-.304687.050781-.40625.050781-.15625 0-.308593.050781-.410156.101562-.105469.050782-.257813.050782-.359375.101563-.152344.054687-.308594.105469-.460938.15625-.101562.050781-.203124.101563-.308593.101563-.152344.050781-.304688.101562-.460938.152343-.101562.050781-.253906.101563-.355469.15625-.15625.050781-.257812.101563-.410156.203125-.15625.050782-.257812.152344-.410156.257813-.101562.050781-.207031.101562-.308594.203125-.152344.101562-.253906.203125-.410156.308594-.101562.050781-.152344.152343-.253906.203124-.152344.101563-.257813.203126-.359375.359376-.101563.101562-.152344.152343-.253907.253906-.105468.105468-.207031.207031-.308593.359375-.101563.101562-.203125.207031-.257813.308593-.101562.101563-.152344.203126-.253906.304688-.101562.15625-.207031.257812-.308594.410156-.050781.050782-.050781.050782-.101562.101563-.050782.054687-.050782.105469-.101563.207031-.101562.152344-.15625.308594-.257812.460938-.050781.101562-.101563.203124-.152344.304687-.050781.15625-.152344.308594-.203125.460937-.054688.105469-.105469.257813-.15625.359376-.050781.15625-.101562.257812-.152344.410156-.050781.152344-.050781.308594-.101562.410156-.050782.152344-.050782.253906-.105469.410156-.050781.152344-.050781.304688-.050781.460938 0 .101562-.050782.253906-.050782.355468 0 .15625 0 .359376-.050781.515626v.203124 7.371094h-26.46875v-15.921875c10.648438-2.304687 18.585938-11.777343 18.585938-23.089843 0-13.058594-10.601563-23.65625-23.65625-23.65625-9.984375 0-18.535157 6.246093-22.015625 15.003906l-64.71875-.15625c-20.070313 0-36.453125 16.230468-36.65625 36.300781l-31.4375-12.59375c-7.320313-2.917969-14.847656-4.761719-22.375-5.53125l32.921875-32c8.859375-8.601563 14.027343-20.171875 14.539062-32.511719l.769531-22.527344c.203126-4.199218 3.328126-7.679687 7.476563-8.292968l54.730469-8.089844c2.765625-.410156 4.710937-2.355469 4.917968-4.8125.203126-2.714844-1.742187-5.222656-4.300781-5.480469l-144.640625-10.1875c-2.613281 0-4.761718 2.097657-4.96875 4.8125-.152344 2.457031 1.589844 4.761719 4.148438 5.476563l54.785156 16.386718c3.839844 1.125 6.398438 4.761719 6.246094 8.753907l-.921875 23.039062c-.308594 6.757813-3.125 13.109375-7.988281 17.820313l-52.632813 51.609375c-17.714844 5.988281-33.484375 17.867187-44.03125 34.710937-21.402344 34.152344-15.359375 78.695313 14.4375 105.882813 1.691406 1.535156 3.789063 2.253906 5.886719 2.253906 2.355468 0 4.710937-.972656 6.453125-2.816406 3.226562-3.53125 2.96875-9.0625-.5625-12.289063-23.554688-21.503906-28.367188-56.730468-11.417969-83.761718 16.945312-27.035157 50.738281-38.042969 80.382812-26.214844l32.460938 13.003906c1.792969.71875 3.585938 1.28125 5.425781 1.792969v92.980469c-1.839843.460937-3.632812 1.074218-5.425781 1.789062l-32.460938 13.007812c-8.804687 3.53125-18.433593 5.117188-27.851562 4.605469-4.8125-.253906-8.910156 3.429688-9.164062 8.242188-.257813 4.816406 3.429687 8.910156 8.242187 9.167969 1.382813.050781 2.816406.101562 4.199219.101562 10.597656 0 21.195312-2.046875 31.027344-5.941406l31.433593-12.59375c.207031 20.019531 16.539063 36.25 36.609375 36.300781l64.820313.152344c3.480469 8.707031 12.03125 14.847656 21.964843 14.847656 13.054688 0 23.652344-10.597656 23.652344-23.652344 0-11.316406-7.984375-20.789062-18.585937-23.089843v-15.71875h26.472656v6.960937.207031c0 .152344 0 .355469.050781.511719 0 .101563 0 .253906.050782.359375 0 .152344.050781.304688.050781.457031 0 .15625.050781.257813.101562.410157.050781.15625.050781.308593.105469.410156.050781.15625.101562.308594.152344.410156.050781.101562.101562.257812.152344.359375.050781.152344.101562.304687.207031.460937.050781.101563.101562.203126.152343.304688.101563.15625.152344.308594.253907.460938.054687.050781.054687.105468.105469.207031.050781.050781.050781.101562.101562.152343.050781.050782.101562.152344.152344.207032.308594.40625.613281.816406.972656 1.175781.050781.050781.050781.050781.101562.101563.359376.359374.769532.71875 1.179688.972656.050781 0 .050781.050781.101562.050781.207032.15625.410157.257813.667969.410156 0 0 .050781 0 .050781.050781.203126.105469.40625.207032.613282.308594.050781.050782.152344.050782.203125.101563.207031.101562.410156.15625.617187.257812.050782 0 .152344.050781.203125.050781.152344.050782.359375.101563.511719.152344.050781 0 .152344.050782.207031.050782.253907.050781.460938.101562.714844.101562h.152344c.257812 0 .511719.054688.820312.054688.257813 0 .511719 0 .820313-.054688h.152344c.257812-.050781.511718-.050781.769531-.101562.253906-.050782.511719-.101563.714843-.203126.050782 0 .15625-.050781.207032-.050781.152344-.050781.355468-.101562.511718-.207031.050782-.050781.152344-.050781.203126-.101562.207031-.101563.410156-.203126.667968-.308594.050782-.050782.152344-.101563.203125-.101563.101563-.050781.203125-.101562.257813-.152343 11.570312-7.167969 21.144531-17.253907 27.800781-29.132813 6.605469-11.878906 10.085937-25.34375 10.085937-38.964844-.050781-13.667969-3.585937-27.1875-10.1875-39.0625zm-72.550781-59.597656c3.429688 0 6.246094 2.816406 6.246094 6.246094 0 3.429687-2.816406 6.246093-6.246094 6.246093-3.433593 0-6.246093-2.816406-6.246093-6.246093 0-3.429688 2.8125-6.246094 6.246093-6.246094zm-86.734375 14.847656 64.769532.152344c2.867187 7.117187 9.113281 12.542969 16.742187 14.285156v15.921875h-26.113281c-1.023438-8.90625-8.601563-15.871094-17.816406-15.921875 0 0 0 0-.050782 0h-.054687l-23.804688-.203125h-.050781c-3.484375 0-6.964844.410156-10.394531 1.175782l-21.710938 5.121093c-.253906.050781-.511719.101563-.714843.152344v-1.484375c-.050782-10.546875 8.601562-19.199219 19.199218-19.199219zm16.488282 135.78125v-104.089843l20.9375.15625h.050781c.359375 0 .617187.253906.617187.613281v102.65625c0 .359375-.257812.613281-.617187.613281h-20.988281zm-31.027344-5.886719c-.054688 0-.054688 0 0 0-1.589844-.359374-3.125-.613281-4.710938-.820312v-90.675781c1.535156-.203125 3.121094-.460938 4.65625-.816407h.054688l16.742187-3.945312v100.25zm70.039062-82.074218h6.453125v72.191406h-6.453125zm16.691406 0h9.320313v72.191406h-9.320313zm14.542969 134.65625c-3.433593 0-6.246093-2.816406-6.246093-6.246094s2.8125-6.246094 6.246093-6.246094c3.429688 0 6.246094 2.816406 6.246094 6.246094s-2.816406 6.246094-6.246094 6.246094zm-5.222656-29.285156c-7.679687 1.738281-13.980469 7.21875-16.792969 14.4375l-64.71875-.152344c-10.648437 0-19.25-8.65625-19.25-19.253906v-1.484376c.253906.050782.511719.101563.714844.152344l21.710938 5.121094h.050781c3.378906.769531 6.910156 1.179688 10.394531 1.179688h23.910156c9.164063 0 16.742188-6.863282 17.867188-15.769532h26.164062v15.769532zm10.238281-105.371094h9.472656v72.191406h-9.472656zm19.765625 72.191406v-72.191406h6.707031v72.191406zm24.113281 5.992188v-84.582032c10.445313 11.363282 16.382813 26.316406 16.382813 42.289063 0 15.976562-5.9375 30.925781-16.382813 42.292969zm0 0"/><path d="m113.015625 229.574219c-4.300781 2.097656-6.144531 7.320312-4.046875 11.621093 1.484375 3.125 4.609375 4.917969 7.832031 4.917969 1.28125 0 2.5625-.308593 3.789063-.871093 20.480468-9.933594 29.390625-34.050782 20.277344-54.886719-9.0625-20.839844-32.820313-30.773438-54.015626-22.578125-21.199218 8.191406-32.101562 31.488281-24.78125 53.042968 1.535157 4.554688 6.5 7.011719 11.058594 5.425782 4.558594-1.535156 7.015625-6.503906 5.425782-11.058594-4.300782-12.648438 2.101562-26.367188 14.59375-31.179688 12.492187-4.816406 26.417968 1.023438 31.796874 13.257813 5.324219 12.289063.101563 26.472656-11.929687 32.308594zm0 0"/><path d="m100.164062 316.769531c-6.09375-3.738281-12.953124-5.789062-18.230468-7.117187-3.328125-.871094-6.707032-1.539063-10.085938-2.050782l40.191406-96.304687c2.253907-5.480469-.355468-11.828125-5.835937-14.082031-5.476563-2.304688-11.824219.308594-14.128906 5.734375l-43.316407 103.730469c-7.425781.566406-14.796874 1.945312-21.914062 4.199218-8.449219 2.664063-14.644531 5.992188-19.40625 10.546875-4.65625 4.457031-7.21875 9.625-7.421875 14.898438-.308594 7.628906 3.992187 14.796875 12.082031 20.277343 9.78125 6.605469 22.121094 10.238282 37.734375 11.058594 2.253907.101563 4.507813.207032 6.707031.207032 15.976563 0 30.105469-3.226563 42.191407-9.578126 2.867187-1.484374 6.5-3.683593 9.574219-7.0625 3.480468-3.839843 5.425781-8.960937 5.324218-14.03125-.050781-11.261718-10.292968-18.480468-13.464844-20.425781zm-4.8125 22.882813c-1.179687 1.332031-3.125 2.460937-4.710937 3.277344-10.855469 5.734374-24.269531 8.191406-39.785156 7.375-12.335938-.667969-21.808594-3.328126-28.875-8.089844-2.96875-1.996094-4.453125-4.097656-4.402344-5.171875 0-.203125.355469-1.332031 2.046875-2.96875 2.765625-2.664063 6.757812-4.710938 12.542969-6.554688 7.730469-2.40625 15.976562-3.636719 24.371093-3.636719 7.117188 0 14.285157.871094 21.199219 2.613282 4.300781 1.074218 9.265625 2.558594 13.363281 5.070312 3.378907 2.097656 5.167969 4.8125 5.167969 5.679688v.15625c-.050781.765625-.40625 1.636718-.917969 2.25zm0 0"/></svg>