<svg id="Layer_1" viewBox="0 0 64 64" xmlns="http://www.w3.org/2000/svg" data-name="Layer 1"><path d="m62.133 4.833c-.017-.73-.303-1.415-.822-1.934-1.07-1.07-2.931-1.07-4 0l-38.588 38.588c-1.055-.626-2.438-.495-3.344.411l-10.433 10.433s-.002.001-.003.002-.001.002-.002.003l-1.931 1.931c-1.064 1.076-1.062 2.818.004 3.885l3.044 3.044c.536.536 1.24.804 1.944.804s1.408-.268 1.944-.804l1.926-1.926s.003-.002.004-.003.002-.003.003-.004l6.543-6.543c.806.513 1.745.79 2.723.79 2.805 0 5.087-2.282 5.087-5.087 0-1.164-.41-2.259-1.098-3.135 2.887-.448 5.25-1.61 7.04-3.479 2.868-2.995 3.45-6.947 3.56-8.79 3.961-.179 7.061-1.457 9.226-3.807 2.727-2.96 3.181-6.787 3.23-8.616 4.077-.191 7.355-1.551 9.754-4.051.917-.956 1.635-2.003 2.196-3.068v45.203c0 .44-.358.799-.799.799s-.799-.358-.799-.799v-3.851c0-.404-.244-.769-.617-.924-.375-.155-.804-.069-1.09.217l-1.581 1.581c-.391.391-.391 1.023 0 1.414.351.351.897.387 1.288.107v1.456c0 1.543 1.256 2.799 2.799 2.799s2.799-1.255 2.799-2.799v-53.169c.009-.372 0-.603 0-.651 0-.01-.006-.017-.007-.027zm-3.407-.52c.315-.315.857-.314 1.171 0 .158.158.245.368.244.59 0 .219-.086.424-.24.578-.001 0-.002.002-.003.003l-37.92 37.92c-.022-.004-.045-.002-.066-.005-.218-.033-.44-.05-.664-.054-.034 0-.067-.008-.101-.008-.094 0-.189.007-.284.012-.03.002-.059.002-.089.004-.017.001-.033 0-.05.002l-.52-.519zm-51.254 55.469-3.044-3.044c-.291-.291-.289-.768 0-1.061l1.223-1.223 4.105 4.105-1.223 1.223c-.293.292-.769.291-1.06 0zm3.697-2.637-4.105-4.105 9.728-9.728c.146-.146.338-.219.53-.219s.384.073.53.219l.228.228s0 .001 0 .001l.492.491c-.009.005-.017.012-.026.018-.039.023-.073.051-.111.075-.185.116-.361.244-.528.382-.064.053-.124.108-.185.164-.141.128-.273.263-.398.406-.05.057-.101.111-.149.17-.162.202-.312.413-.442.637-.013.023-.022.047-.035.07-.114.205-.213.418-.298.639-.029.075-.053.151-.079.228-.061.183-.111.369-.151.559-.016.078-.035.155-.048.234-.043.265-.072.534-.072.809 0 .314.039.624.096.929.017.091.042.179.064.269.054.221.122.436.205.647.034.088.066.175.105.26.122.268.262.526.43.77.009.013.015.027.023.039l-5.806 5.807zm9.976-5.635c-.795 0-1.547-.299-2.124-.848-.625-.587-.97-1.383-.97-2.239 0-.185.016-.366.048-.543.221-1.237 1.187-2.242 2.459-2.486.234-.046.465-.058.69-.051.047.002.092.006.138.01.204.016.404.046.59.102.012.003.024.004.036.008 1.307.38 2.219 1.598 2.219 2.96 0 1.702-1.385 3.087-3.087 3.087zm9.585-11.084c-1.46 1.524-3.412 2.486-5.823 2.876l8.598-8.598c-.326 1.709-1.069 3.94-2.775 5.721zm12.747-12.556c-1.479 1.6-3.534 2.596-6.121 2.984l8.678-8.678c-.255 1.681-.907 3.91-2.557 5.694zm13.014-12.699c-1.696 1.762-3.95 2.848-6.71 3.258l10.007-10.007c-.418 2.078-1.325 4.701-3.297 6.749z"/></svg>