<?xml version="1.0" encoding="UTF-8"?>
<svg xmlns="http://www.w3.org/2000/svg" viewBox="0 0 512 512" width="512" height="512"><g id="outline"><path d="M424,488a64,64,0,0,0,0-128H408V288h24a8,8,0,0,0,8-8V24a8,8,0,0,0-8-8H400a8,8,0,0,0-8,8v9.376a23.943,23.943,0,0,0-24,4.755,23.943,23.943,0,0,0-32,0,23.943,23.943,0,0,0-32,0,23.943,23.943,0,0,0-32,0,23.943,23.943,0,0,0-32,0,23.943,23.943,0,0,0-32,0,23.943,23.943,0,0,0-32,0,23.943,23.943,0,0,0-32,0,23.943,23.943,0,0,0-24-4.755V24a8,8,0,0,0-8-8H80a8,8,0,0,0-8,8V280a8,8,0,0,0,8,8h32a8,8,0,0,0,8-8v-9.376a23.943,23.943,0,0,0,24-4.755,23.943,23.943,0,0,0,32,0,23.943,23.943,0,0,0,32,0,23.943,23.943,0,0,0,32,0,23.943,23.943,0,0,0,32,0,23.943,23.943,0,0,0,32,0,23.943,23.943,0,0,0,32,0,23.943,23.943,0,0,0,24,4.755V360H261.132a31.941,31.941,0,0,0-46.727,4.817A23.98,23.98,0,0,0,177.376,376H92a28,28,0,0,1,0-56h29.052l-7.708,11.562a8,8,0,0,0,13.312,8.876l16-24A8,8,0,0,0,136,304H92a44,44,0,0,0,0,88h85.376a23.98,23.98,0,0,0,37.029,11.183A31.941,31.941,0,0,0,261.132,408H360v16A64.072,64.072,0,0,0,424,488ZM408,32h16V272H408ZM104,272H88V32h16Zm24-16a8.009,8.009,0,0,1-8-8V56a8,8,0,0,1,16,0V248A8.009,8.009,0,0,1,128,256Zm32,0a8.009,8.009,0,0,1-8-8V56a8,8,0,0,1,16,0V248A8.009,8.009,0,0,1,160,256Zm32,0a8.009,8.009,0,0,1-8-8V56a8,8,0,0,1,16,0V248A8.009,8.009,0,0,1,192,256Zm32,0a8.009,8.009,0,0,1-8-8V56a8,8,0,0,1,16,0V248A8.009,8.009,0,0,1,224,256Zm32,0a8.009,8.009,0,0,1-8-8V56a8,8,0,0,1,16,0V248A8.009,8.009,0,0,1,256,256Zm32,0a8.009,8.009,0,0,1-8-8V56a8,8,0,0,1,16,0V248A8.009,8.009,0,0,1,288,256Zm32,0a8.009,8.009,0,0,1-8-8V56a8,8,0,0,1,16,0V248A8.009,8.009,0,0,1,320,256Zm32,0a8.009,8.009,0,0,1-8-8V56a8,8,0,0,1,16,0V248A8.009,8.009,0,0,1,352,256Zm24-8V56a8,8,0,0,1,16,0V360H376ZM200,392a8,8,0,1,1,8-8A8.009,8.009,0,0,1,200,392Zm24-8a16,16,0,1,1,16,16A16.019,16.019,0,0,1,224,384Zm152,24h16v16a32,32,0,1,0,32-32H270.987a32.1,32.1,0,0,0,0-16H424a48,48,0,1,1-48,48Zm32,0h16a16,16,0,1,1-16,16Z"/></g></svg>
