<svg id="Layer_1" height="512" viewBox="0 0 66 66" width="512" xmlns="http://www.w3.org/2000/svg" data-name="Layer 1"><g fill="rgb(0,0,0)"><path d="m65.695 52.458-9.259-29.1a6.542 6.542 0 0 0 -6.256-4.574h-6.72l-2.58-7.74h12.989a6.573 6.573 0 0 0 6.566-6.565v-2.779a1 1 0 0 0 -1-1h-52.87a1 1 0 0 0 -1 1v2.778a6.573 6.573 0 0 0 6.566 6.565h12.989l-2.58 7.74h-6.72a6.542 6.542 0 0 0 -6.256 4.574l-9.259 29.101a1 1 0 0 0 -.3.716v5.565a6.572 6.572 0 0 0 6.56 6.561h52.87a6.572 6.572 0 0 0 6.565-6.561v-5.565a1 1 0 0 0 -.305-.716zm-58.13-47.98v-1.778h50.87v1.778a4.57 4.57 0 0 1 -4.566 4.565h-41.738a4.57 4.57 0 0 1 -4.566-4.565zm19.663 6.565h11.544l2.58 7.74h-16.7zm-15.757 12.921a4.546 4.546 0 0 1 4.349-3.181h34.36a4.546 4.546 0 0 1 4.349 3.181l8.977 28.21h-61.012zm52.529 34.775a4.57 4.57 0 0 1 -4.565 4.561h-52.87a4.57 4.57 0 0 1 -4.565-4.561v-4.565h62z"/><path d="m33 24.348a12.131 12.131 0 1 0 12.131 12.13 12.145 12.145 0 0 0 -12.131-12.13zm.962 22.212a.909.909 0 0 0 .038-.188v-2.472a1 1 0 1 0 -2 0v2.474a.979.979 0 0 0 .038.188 10.145 10.145 0 0 1 -9.118-9.082h1.423a1 1 0 0 0 0-2h-1.423a10.148 10.148 0 0 1 9.08-9.08v1.423a1 1 0 0 0 2 0v-1.423a10.148 10.148 0 0 1 9.08 9.08h-1.423a1 1 0 0 0 0 2h1.423a10.145 10.145 0 0 1 -9.118 9.08z"/><path d="m35 32.621-2.707 2.709a1 1 0 1 0 1.414 1.414l2.709-2.709a1 1 0 0 0 -1.416-1.414z"/></g></svg>