<svg id="Layer_1" viewBox="0 0 100 100" xmlns="http://www.w3.org/2000/svg"><g fill="#33373d"><path d="m60.4 81.8-3.7 6.7 2.6 1.4 1-1.8c.8 2.2 1.1 4.6.2 6.1-.7 1.1-2 1.7-4.1 1.7-1 0-1.8-.3-2.5-1-1.9-2-2.4-6.4-2.5-8.8 0-.5 0-.9 0-.9v-4.7c3.7-.7 6.5-4 6.5-7.9 0-.7-.1-1.4-.3-2.1l-.2.1c5.4-6.3 9-19.3 9-34.7 0-20.5-6.8-34.8-16.5-34.8s-16.4 14.3-16.4 34.8c0 15.2 3.5 28.1 8.8 34.5-.2.7-.3 1.4-.3 2.2 0 3.9 2.8 7.1 6.5 7.9v4.7 1c-.1 2.3-.6 6.8-2.5 8.8-.7.7-1.5 1-2.5 1-2 0-3.4-.6-4.1-1.7-.9-1.5-.6-3.9.2-6.1l1 1.8 2.6-1.4-3.7-6.7-1.3 2.3c-1.9 3.3-3.3 8.2-1.4 11.6.8 1.5 2.7 3.2 6.7 3.2 1.8 0 3.4-.7 4.6-2 .8-.8 1.4-1.8 1.8-2.9.5 1.1 1.1 2.1 1.8 2.9 1.3 1.3 2.8 2 4.6 2 4 0 5.8-1.7 6.7-3.2 2-3.4.5-8.4-1.4-11.6zm-23.9-45.9c0-20.9 6.8-31.8 13.5-31.8s13.5 10.9 13.5 31.8c0 21.4-7 35.8-13.5 35.8-1.4 0-2.8-.7-4.2-1.9.8-1.2 2.2-2.1 3.8-2.2h.4c3 0 5.5-2.5 5.5-5.5s-2.5-5.4-5.5-5.4-5.5 2.5-5.5 5.5c0 1.4.5 2.6 1.4 3.6-.8.5-1.5 1.1-2 1.7-4.2-5.7-7.4-17-7.4-31.6zm11 26.3c0-1.4 1.1-2.5 2.5-2.5s2.5 1.1 2.5 2.5-1.1 2.5-2.5 2.5v-.1c-.1 0-.3 0-.4 0-1.2-.1-2.1-1.2-2.1-2.4zm-2.5 10.8c1.6 1.1 3.2 1.7 5 1.7 1.7 0 3.4-.6 5-1.7-.2 2.6-2.3 4.6-5 4.6-2.6 0-4.7-2-5-4.6z"/><path d="m50 19.1c3 0 5.5-2.5 5.5-5.5s-2.5-5.5-5.5-5.5-5.5 2.5-5.5 5.5 2.5 5.5 5.5 5.5zm0-8c1.4 0 2.5 1.1 2.5 2.5s-1.1 2.5-2.5 2.5-2.5-1.1-2.5-2.5 1.1-2.5 2.5-2.5z"/></g></svg>