<svg id="Layer_5" enable-background="new 0 0 64 64" height="512" viewBox="0 0 64 64" width="512" xmlns="http://www.w3.org/2000/svg"><path d="m58.684 56.052.633 1.896 1.683-.56v.612c0 1.654-1.346 3-3 3s-3-1.346-3-3v-2-3.184c1.161-.414 2-1.514 2-2.816s-.839-2.402-2-2.816v-10.184h1c1.654 0 3-1.346 3-3 0-.771-.301-1.468-.78-2 .48-.532.78-1.229.78-2 0-1.654-1.346-3-3-3h-1.486c-2.112-11.254-11.187-19.988-22.514-21.676v-1.324c0-1.654-1.346-3-3-3h-2c-1.654 0-3 1.346-3 3v1.307c-13.173 1.954-23 13.271-23 26.693 0 14.888 12.112 27 27 27 11.071 0 20.923-6.911 25-16.825v5.01c-1.161.414-2 1.514-2 2.816s.839 2.402 2 2.816v3.183 2c0 1.654-1.346 3-3 3s-3-1.346-3-3v-.612l1.684.561.633-1.896-4.317-1.441v3.388c0 2.757 2.243 5 5 5 1.641 0 3.088-.806 4-2.031.912 1.225 2.359 2.031 4 2.031 2.757 0 5-2.243 5-5v-3.388zm-2.684-21.052h-12c-.552 0-1-.448-1-1s.448-1 1-1h12c.552 0 1 .448 1 1s-.448 1-1 1zm-29-16h2c1.654 0 3-1.346 3-3v-.503c5.847 1.404 10.481 5.761 12.237 11.503h-.237c-1.654 0-3 1.346-3 3 0 .771.301 1.468.78 2-.48.532-.78 1.229-.78 2 0 1.654 1.346 3 3 3h.23c-2.172 7.124-8.672 12-16.23 12-9.374 0-17-7.626-17-17 0-7.92 5.402-14.67 13-16.494v.494c0 1.654 1.346 3 3 3zm19.306 8c-1.864-6.86-7.353-12.056-14.306-13.544v-2.055c8.058 1.549 14.439 7.628 16.381 15.599zm-22.306-13.538c-8.738 1.87-15 9.523-15 18.538 0 10.477 8.523 19 19 19 8.652 0 16.057-5.721 18.302-14h2.074c-2.278 9.337-10.65 16-20.376 16-11.579 0-21-9.421-21-21 0-10.059 7.235-18.702 17-20.591zm33 16.538c0 .552-.448 1-1 1h-12c-.552 0-1-.448-1-1s.448-1 1-1h12c.552 0 1 .448 1 1zm-4.523-3h-2.047c-2.014-9.088-9.266-16.023-18.43-17.629v-2.024c10.227 1.649 18.415 9.51 20.477 19.653zm-26.477-23c0-.552.448-1 1-1h2c.552 0 1 .448 1 1v12c0 .552-.448 1-1 1h-2c-.552 0-1-.448-1-1zm2 53c-13.785 0-25-11.215-25-25 0-12.325 8.956-22.713 21-24.648v2.025c-10.888 1.917-19 11.477-19 22.623 0 12.683 10.317 23 23 23 10.817 0 20.104-7.525 22.426-18h2.046c-2.343 11.476-12.645 20-24.472 20zm26-8c.552 0 1 .448 1 1s-.448 1-1 1-1-.448-1-1 .448-1 1-1z"/></svg>