<svg width="78" height="20" viewBox="0 0 78 20" fill="none" xmlns="http://www.w3.org/2000/svg">
<path d="M52.2692 8.92232L50.8843 9.00755C50.8606 8.88917 50.8097 8.78264 50.7316 8.68794C50.6534 8.59088 50.5505 8.51394 50.4226 8.45712C50.2971 8.39793 50.1468 8.36834 49.9716 8.36834C49.7372 8.36834 49.5396 8.41806 49.3786 8.51749C49.2176 8.61455 49.1371 8.74476 49.1371 8.90811C49.1371 9.03832 49.1892 9.14841 49.2934 9.23837C49.3975 9.32833 49.5763 9.40054 49.8296 9.45499L50.8168 9.65385C51.3471 9.76275 51.7425 9.93794 52.0029 10.1794C52.2633 10.4209 52.3935 10.7381 52.3935 11.1311C52.3935 11.4886 52.2881 11.8023 52.0774 12.0722C51.8691 12.3421 51.5827 12.5528 51.2181 12.7043C50.8559 12.8534 50.438 12.928 49.9645 12.928C49.2425 12.928 48.6672 12.7777 48.2387 12.477C47.8125 12.174 47.5628 11.762 47.4894 11.2412L48.9773 11.1631C49.0223 11.3833 49.1312 11.5513 49.304 11.6673C49.4768 11.781 49.6982 11.8378 49.9681 11.8378C50.2332 11.8378 50.4463 11.7869 50.6073 11.6851C50.7706 11.5809 50.8535 11.4472 50.8559 11.2838C50.8535 11.1465 50.7955 11.0341 50.6819 10.9465C50.5682 10.8565 50.393 10.7878 50.1563 10.7405L49.2117 10.5523C48.679 10.4458 48.2825 10.2611 48.022 9.99831C47.764 9.73553 47.635 9.40054 47.635 8.99334C47.635 8.64296 47.7297 8.34112 47.9191 8.0878C48.1108 7.83449 48.3795 7.63917 48.7252 7.50186C49.0732 7.36455 49.4804 7.2959 49.9468 7.2959C50.6357 7.2959 51.1778 7.4415 51.5732 7.73269C51.9709 8.02388 52.2029 8.42042 52.2692 8.92232Z" fill="white"/>
<path d="M41.4027 14.8669V7.36692H42.8942V8.28311H42.9617C43.0279 8.13633 43.1238 7.98719 43.2493 7.83567C43.3771 7.68179 43.5429 7.55395 43.7465 7.45215C43.9524 7.34798 44.2081 7.2959 44.5135 7.2959C44.9112 7.2959 45.2782 7.40007 45.6144 7.6084C45.9505 7.81436 46.2192 8.12568 46.4205 8.54235C46.6217 8.95665 46.7223 9.4763 46.7223 10.1013C46.7223 10.7097 46.6241 11.2235 46.4276 11.6425C46.2334 12.0592 45.9683 12.3752 45.6321 12.5906C45.2983 12.8037 44.9243 12.9102 44.51 12.9102C44.2164 12.9102 43.9666 12.8617 43.7607 12.7646C43.5571 12.6676 43.3902 12.5457 43.26 12.3989C43.1297 12.2497 43.0303 12.0994 42.9617 11.9479H42.9155V14.8669H41.4027ZM42.8835 10.0942C42.8835 10.4185 42.9285 10.7014 43.0185 10.9429C43.1084 11.1844 43.2386 11.3726 43.4091 11.5075C43.5796 11.6401 43.7867 11.7064 44.0305 11.7064C44.2768 11.7064 44.4851 11.6389 44.6555 11.504C44.826 11.3667 44.955 11.1773 45.0426 10.9358C45.1326 10.692 45.1776 10.4114 45.1776 10.0942C45.1776 9.77933 45.1338 9.50234 45.0462 9.26323C44.9586 9.02412 44.8296 8.83709 44.6591 8.70215C44.4886 8.5672 44.2791 8.49973 44.0305 8.49973C43.7843 8.49973 43.576 8.56484 43.4055 8.69505C43.2375 8.82525 43.1084 9.00991 43.0185 9.24902C42.9285 9.48813 42.8835 9.76986 42.8835 10.0942Z" fill="white"/>
<path d="M38.6782 12.8214V7.36684H40.1909V12.8214H38.6782ZM39.4381 6.66372C39.2132 6.66372 39.0202 6.58914 38.8593 6.44C38.7006 6.28848 38.6213 6.10737 38.6213 5.89667C38.6213 5.68834 38.7006 5.5096 38.8593 5.36045C39.0202 5.20894 39.2132 5.13318 39.4381 5.13318C39.663 5.13318 39.8548 5.20894 40.0134 5.36045C40.1744 5.5096 40.2549 5.68834 40.2549 5.89667C40.2549 6.10737 40.1744 6.28848 40.0134 6.44C39.8548 6.58914 39.663 6.66372 39.4381 6.66372Z" fill="white"/>
<path d="M37.6928 7.36688V8.50324H34.408V7.36688H37.6928ZM35.1537 6.06006H36.6665V11.1453C36.6665 11.285 36.6878 11.3939 36.7304 11.472C36.773 11.5477 36.8322 11.601 36.908 11.6318C36.9861 11.6626 37.076 11.678 37.1778 11.678C37.2489 11.678 37.3199 11.672 37.3909 11.6602C37.4619 11.646 37.5164 11.6353 37.5543 11.6282L37.7922 12.754C37.7164 12.7776 37.6099 12.8049 37.4726 12.8356C37.3353 12.8688 37.1684 12.8889 36.9719 12.896C36.6073 12.9102 36.2877 12.8617 36.0131 12.7504C35.7408 12.6391 35.5289 12.4663 35.3774 12.2319C35.2259 11.9976 35.1513 11.7016 35.1537 11.3441V6.06006Z" fill="white"/>
<path d="M28.2316 12.9244C27.8836 12.9244 27.5735 12.8641 27.3012 12.7433C27.029 12.6202 26.8135 12.4391 26.6549 12.2C26.4987 11.9585 26.4205 11.6579 26.4205 11.298C26.4205 10.995 26.4762 10.7405 26.5874 10.5345C26.6987 10.3286 26.8502 10.1628 27.042 10.0374C27.2337 9.9119 27.4515 9.8172 27.6954 9.75328C27.9416 9.68936 28.1997 9.64438 28.4695 9.61834C28.7868 9.5852 29.0425 9.55442 29.2366 9.52601C29.4307 9.49524 29.5716 9.45025 29.6592 9.39107C29.7468 9.33188 29.7906 9.24429 29.7906 9.12828V9.10698C29.7906 8.88207 29.7195 8.70807 29.5775 8.58496C29.4378 8.46185 29.239 8.4003 28.9809 8.4003C28.7086 8.4003 28.492 8.46067 28.331 8.58141C28.1701 8.69978 28.0635 8.84893 28.0114 9.02885L26.6123 8.91522C26.6833 8.58378 26.823 8.29732 27.0313 8.05584C27.2397 7.812 27.5084 7.62497 27.8374 7.49476C28.1689 7.36219 28.5524 7.2959 28.988 7.2959C29.291 7.2959 29.581 7.33141 29.858 7.40243C30.1374 7.47345 30.3848 7.58354 30.6002 7.73269C30.818 7.88184 30.9897 8.0736 31.1151 8.30797C31.2406 8.53998 31.3033 8.81815 31.3033 9.14249V12.8215H29.8687V12.0651H29.8261C29.7385 12.2355 29.6213 12.3859 29.4745 12.5161C29.3277 12.6439 29.1514 12.7445 28.9454 12.8179C28.7394 12.8889 28.5015 12.9244 28.2316 12.9244ZM28.6649 11.8804C28.8874 11.8804 29.0839 11.8366 29.2543 11.749C29.4248 11.6591 29.5586 11.5383 29.6556 11.3868C29.7527 11.2353 29.8012 11.0637 29.8012 10.8719V10.2931C29.7539 10.3238 29.6888 10.3522 29.6059 10.3783C29.5254 10.402 29.4343 10.4244 29.3325 10.4458C29.2307 10.4647 29.1289 10.4825 29.0271 10.499C28.9253 10.5132 28.8329 10.5262 28.7501 10.5381C28.5725 10.5641 28.4175 10.6056 28.2849 10.6624C28.1523 10.7192 28.0493 10.7961 27.9759 10.8932C27.9025 10.9879 27.8658 11.1063 27.8658 11.2483C27.8658 11.4543 27.9404 11.6117 28.0896 11.7206C28.2411 11.8271 28.4328 11.8804 28.6649 11.8804Z" fill="white"/>
<path d="M22.2266 11.2518L22.2301 9.4372H22.4503L24.1975 7.36689H25.934L23.5867 10.1084H23.228L22.2266 11.2518ZM20.8558 12.8214V5.54871H22.3686V12.8214H20.8558ZM24.2649 12.8214L22.6598 10.4457L23.6683 9.37683L26.0369 12.8214H24.2649Z" fill="white"/>
<path d="M16.1284 9.66802V12.8214H14.6156V5.54871H16.0858V8.32925H16.1497C16.2728 8.00728 16.4717 7.75515 16.7463 7.57285C17.0209 7.38819 17.3654 7.29587 17.7797 7.29587C18.1585 7.29587 18.4887 7.37872 18.7704 7.54444C19.0545 7.7078 19.2747 7.94336 19.4309 8.25112C19.5896 8.55652 19.6677 8.92229 19.6653 9.34842V12.8214H18.1525V9.61831C18.1549 9.28213 18.0697 9.02053 17.8969 8.83351C17.7264 8.64648 17.4873 8.55297 17.1795 8.55297C16.9736 8.55297 16.7913 8.59676 16.6326 8.68436C16.4764 8.77195 16.3533 8.89979 16.2633 9.06788C16.1757 9.2336 16.1308 9.43365 16.1284 9.66802Z" fill="white"/>
<path d="M13.5387 8.92232L12.1538 9.00755C12.1301 8.88917 12.0792 8.78264 12.0011 8.68794C11.923 8.59088 11.82 8.51394 11.6922 8.45712C11.5667 8.39793 11.4163 8.36834 11.2412 8.36834C11.0068 8.36834 10.8091 8.41806 10.6481 8.51749C10.4871 8.61455 10.4066 8.74476 10.4066 8.90811C10.4066 9.03832 10.4587 9.14841 10.5629 9.23837C10.6671 9.32833 10.8458 9.40054 11.0991 9.45499L12.0863 9.65385C12.6166 9.76275 13.012 9.93794 13.2724 10.1794C13.5328 10.4209 13.663 10.7381 13.663 11.1311C13.663 11.4886 13.5577 11.8023 13.347 12.0722C13.1386 12.3421 12.8522 12.5528 12.4876 12.7043C12.1254 12.8534 11.7075 12.928 11.2341 12.928C10.512 12.928 9.9367 12.7777 9.5082 12.477C9.08206 12.174 8.8323 11.762 8.75891 11.2412L10.2468 11.1631C10.2918 11.3833 10.4007 11.5513 10.5735 11.6673C10.7464 11.781 10.9677 11.8378 11.2376 11.8378C11.5028 11.8378 11.7158 11.7869 11.8768 11.6851C12.0402 11.5809 12.123 11.4472 12.1254 11.2838C12.123 11.1465 12.065 11.0341 11.9514 10.9465C11.8377 10.8565 11.6626 10.7878 11.4258 10.7405L10.4812 10.5523C9.94854 10.4458 9.552 10.2611 9.29158 9.99831C9.03353 9.73553 8.90451 9.40054 8.90451 8.99334C8.90451 8.64296 8.9992 8.34112 9.1886 8.0878C9.38036 7.83449 9.64906 7.63917 9.99471 7.50186C10.3427 7.36455 10.7499 7.2959 11.2163 7.2959C11.9052 7.2959 12.4474 7.4415 12.8427 7.73269C13.2404 8.02388 13.4725 8.42042 13.5387 8.92232Z" fill="white"/>
<path d="M6.27581 12.8214V7.36684H7.7886V12.8214H6.27581ZM7.03576 6.66372C6.81085 6.66372 6.6179 6.58914 6.45692 6.44C6.2983 6.28848 6.21899 6.10737 6.21899 5.89667C6.21899 5.68834 6.2983 5.5096 6.45692 5.36045C6.6179 5.20894 6.81085 5.13318 7.03576 5.13318C7.26066 5.13318 7.45242 5.20894 7.61104 5.36045C7.77202 5.5096 7.85252 5.68834 7.85252 5.89667C7.85252 6.10737 7.77202 6.28848 7.61104 6.44C7.45242 6.58914 7.26066 6.66372 7.03576 6.66372Z" fill="white"/>
<path d="M0.630371 12.8214V5.54871H2.16801V11.5537H5.28591V12.8214H0.630371Z" fill="white"/>
<path d="M69.3369 6.01583e-10C73.4207 3.57642e-07 75.4627 6.6704e-06 76.7314 1.26855C78.0002 2.53725 78 4.57934 78 8.66309V10.5508C78 12.9614 78.0008 14.167 77.4326 15.1641C76.8644 16.1612 75.8271 16.7761 73.7529 18.0049L73.6123 18.0869C71.4599 19.362 70.3839 19.9999 69.1973 20C68.0105 20 66.9338 19.3621 64.7813 18.0869L64.6416 18.0049C62.5673 16.7761 61.5302 16.1612 60.9619 15.1641C60.3937 14.167 60.3936 12.9615 60.3936 10.5508V8.66309C60.3936 4.5794 60.3935 2.53726 61.6621 1.26855C62.9309 -0.000195978 64.9736 -3.56437e-07 69.0576 6.01583e-10L69.3369 6.01583e-10ZM67.8008 11.9639C65.6173 12.0769 64.9063 12.1894 63.7637 12.4531C62.6213 12.7168 61.8089 13.5082 61.707 13.6592C61.6258 13.7798 61.5926 13.8901 61.6563 13.9609C61.8935 14.2247 62.6099 14.6317 63.1582 14.8125C63.8439 15.0386 65.4396 15.3173 66.7344 15.3174C68.0294 15.3174 71.9149 14.4878 72.9814 14.2617C73.8345 14.0809 74.6402 14.1864 74.9365 14.2617L75.9951 14.499C76.3382 14.5757 76.5098 14.614 76.5713 14.5088C76.6326 14.4033 76.5203 14.2791 76.2949 14.0313C76.2512 13.9832 76.2082 13.9373 76.166 13.8945C75.91 13.6352 75.7816 13.5059 75.7803 13.4395C75.779 13.373 75.9138 13.2251 76.1836 12.9297C76.2191 12.8909 76.2537 12.8507 76.2871 12.8105C76.4822 12.576 76.5801 12.4588 76.5195 12.3574C76.4585 12.256 76.2979 12.2892 75.9775 12.3564C74.3428 12.6993 73.6574 12.6376 72.8545 12.6045C71.9404 12.5668 69.9846 11.8508 67.8008 11.9639ZM67.8008 7.25098C65.6173 7.36402 64.9063 7.47743 63.7637 7.74121C62.621 8.00501 61.8086 8.79653 61.707 8.94727C61.6259 9.06774 61.5927 9.17727 61.6563 9.24805C61.8932 9.51184 62.6097 9.91872 63.1582 10.0996C63.8438 10.3257 65.4395 10.6045 66.7344 10.6045C68.0294 10.6045 71.9149 9.77591 72.9814 9.5498C73.8346 9.36898 74.6403 9.47444 74.9365 9.5498L75.9951 9.78613C76.3384 9.86291 76.51 9.9014 76.5713 9.7959C76.6324 9.69042 76.5203 9.56625 76.2949 9.31836C76.2513 9.2704 76.2081 9.22526 76.166 9.18262C75.9105 8.92386 75.7821 8.79417 75.7803 8.72754C75.779 8.66104 75.9136 8.5124 76.1836 8.2168C76.219 8.17806 76.2538 8.13871 76.2871 8.09863C76.4825 7.86378 76.5806 7.74597 76.5195 7.64453C76.4585 7.5431 76.2979 7.57635 75.9775 7.64355C74.3427 7.98648 73.6574 7.92471 72.8545 7.8916C71.9404 7.85392 69.9846 7.13792 67.8008 7.25098ZM67.8008 2.53906C65.6173 2.65211 64.9062 2.76456 63.7637 3.02832C62.6214 3.29202 61.809 4.08326 61.707 4.23438C61.6258 4.35496 61.5926 4.46532 61.6563 4.53613C61.8934 4.79993 62.6099 5.20686 63.1582 5.3877C63.8439 5.61377 65.4396 5.89254 66.7344 5.89258C68.0294 5.89258 71.9149 5.064 72.9814 4.83789C73.8346 4.65704 74.6403 4.76253 74.9365 4.83789L75.9951 5.07422C76.3382 5.15094 76.5099 5.18922 76.5713 5.08398C76.6326 4.9785 76.5203 4.85432 76.2949 4.60645C76.2512 4.55839 76.2082 4.51245 76.166 4.46973C75.91 4.21046 75.7816 4.08114 75.7803 4.01465C75.7791 3.94813 75.9138 3.80025 76.1836 3.50488C76.2191 3.46604 76.2537 3.42594 76.2871 3.38574C76.4822 3.15115 76.5802 3.03398 76.5195 2.93262C76.4585 2.83118 76.2979 2.86443 75.9775 2.93164C74.3428 3.27454 73.6574 3.21279 72.8545 3.17969C71.9404 3.142 69.9846 2.42601 67.8008 2.53906Z" fill="white"/>
</svg>
