<svg id="Capa_1" enable-background="new 0 0 511.997 511.997" height="512" viewBox="0 0 511.997 511.997" width="512" xmlns="http://www.w3.org/2000/svg"><g><path d="m24.524 511.997h450v-240h-450zm30-210h390v180h-390z"/><path d="m354.524 361.997h30v60h-30v30h60v-120h-60z"/><path d="m84.524 451.997h60v-30h-30v-60h30v-30h-60z"/><path d="m300.949 348.177c-13.911-10.434-32.175-16.18-51.426-16.18s-37.515 5.746-51.426 16.18c-14.981 11.236-23.574 27.208-23.574 43.82s8.593 32.584 23.574 43.82c13.911 10.434 32.175 16.18 51.426 16.18s37.515-5.746 51.426-16.18c14.981-11.236 23.574-27.208 23.574-43.82s-8.592-32.584-23.574-43.82zm-51.425 73.82c-24.393 0-45-13.738-45-30s20.607-30 45-30 45 13.738 45 30-20.608 30-45 30z"/><path d="m450.723 133.271-162.2-30.266-5.503 29.491-58.981-11.005 11.006-58.982 29.491 5.503 5.503-29.491-206.438-38.521-5.503 29.491 29.491 5.503-27.515 147.455-29.491-5.503-5.503 29.491 206.438 38.52 5.503-29.491-29.491-5.503 11.006-58.981 58.981 11.005-5.503 29.491 162.201 30.266c24.484 4.567 47.956-11.68 52.49-35.982 4.552-24.393-11.59-47.94-35.982-52.491zm-361.157 54.681 27.514-147.455 88.473 16.508-27.515 147.455zm367.649-7.693c-1.518 8.13-9.368 13.513-17.498 11.994l-132.709-24.763 5.503-29.491 132.71 24.763c8.13 1.517 13.511 9.366 11.994 17.497z"/></g></svg>