<svg preserveAspectRatio="none" width="100%" height="100%" overflow="visible" style="display: block;" viewBox="0 0 168 32" fill="none" xmlns="http://www.w3.org/2000/svg">
<g id="logo.svg" clip-path="url(#clip0_0_34)">
<path id="Vector" d="M14.3099 6.52551e-10C20.8437 5.73048e-07 24.1107 0.000252565 26.1407 2.02995C28.1707 4.05993 28.1705 7.32753 28.1705 13.862V16.8803C28.1705 20.7377 28.1709 22.6676 27.2617 24.2631C26.3524 25.8581 24.6933 26.8416 21.3751 28.8073L21.1511 28.9401C17.7071 30.9803 15.9847 31.9999 14.086 32C12.1872 32 10.4648 30.9803 7.02084 28.9401L6.79688 28.8073C3.47808 26.8412 1.81809 25.8584 0.908855 24.2631C-0.000331799 22.6677 -1.45916e-08 20.7385 2.09322e-10 16.8815V13.862C2.97332e-08 7.32764 8.04265e-05 4.05996 2.02995 2.02995C4.05995 -5.35647e-05 7.32751 -5.70609e-07 13.862 6.52551e-10H14.3099ZM11.8516 19.1419C8.35781 19.3228 7.22015 19.5037 5.39193 19.9257C3.5654 20.3475 2.266 21.6113 2.10156 21.8541C1.9716 22.0471 1.91787 22.2239 2.01953 22.3372C2.39873 22.7593 3.5456 23.4111 4.42317 23.7005C5.52043 24.0623 8.07411 24.5079 10.1458 24.5079C12.2182 24.5077 18.4343 23.1808 20.1407 22.8191C21.5052 22.5299 22.794 22.6984 23.2683 22.8191L24.9623 23.1979C25.5116 23.3208 25.786 23.3823 25.8841 23.2136C25.9823 23.0448 25.8021 22.846 25.4415 22.4492C25.3717 22.3725 25.3031 22.3 25.2357 22.2317C24.8259 21.8168 24.6205 21.6089 24.6185 21.5027C24.6172 21.3959 24.8332 21.1595 25.2643 20.6875C25.3211 20.6255 25.3763 20.5616 25.4297 20.4973C25.7423 20.1216 25.8985 19.9332 25.8008 19.7708C25.7029 19.6091 25.4468 19.6635 24.9349 19.7708C22.3193 20.3195 21.222 20.2196 19.9375 20.1667C18.4749 20.1064 15.3456 18.9611 11.8516 19.1419ZM11.8516 11.6016C8.35779 11.7824 7.22015 11.9634 5.39193 12.3854C3.56403 12.8074 2.26449 14.0736 2.10156 14.3151C1.97171 14.5079 1.91824 14.6836 2.01953 14.7969C2.39873 15.2189 3.5456 15.8708 4.42317 16.1601C5.52035 16.5219 8.074 16.9675 10.1458 16.9675C12.2182 16.9673 18.4343 15.6417 20.1407 15.28C21.5053 14.9907 22.7941 15.1593 23.2683 15.28L24.9623 15.6588C25.5109 15.7816 25.7857 15.8425 25.8841 15.6745C25.9823 15.5057 25.8021 15.3069 25.4415 14.9101C25.3717 14.8335 25.3031 14.7609 25.2357 14.6927C24.8261 14.278 24.6208 14.07 24.6185 13.9636C24.6164 13.8572 24.8324 13.6201 25.2643 13.1471C25.3211 13.085 25.3763 13.0213 25.4297 12.957C25.7421 12.5814 25.8984 12.394 25.8008 12.2318C25.7031 12.0695 25.4472 12.123 24.9349 12.2305C22.3193 12.7791 21.2221 12.6793 19.9375 12.6263C18.4749 12.566 15.3456 11.4207 11.8516 11.6016ZM11.8516 4.06251C8.35781 4.24337 7.22013 4.42431 5.39193 4.84636C3.56516 5.26813 2.26571 6.53217 2.10156 6.77473C1.97156 6.96767 1.91777 7.14451 2.01953 7.25781C2.39873 7.67988 3.5456 8.33037 4.42317 8.61979C5.52024 8.98155 8.07389 9.42839 10.1458 9.42839C12.2182 9.42825 18.4343 8.10133 20.1407 7.73959C21.5052 7.4504 22.794 7.61901 23.2683 7.73959L24.9623 8.11849C25.5115 8.24131 25.786 8.30276 25.8841 8.13412C25.9823 7.96531 25.8021 7.76659 25.4415 7.36979C25.3717 7.29309 25.3031 7.22055 25.2357 7.15235C24.8259 6.73743 24.6205 6.52957 24.6185 6.42317C24.6171 6.31657 24.8331 6.08023 25.2643 5.60807C25.3209 5.54603 25.3763 5.48217 25.4297 5.41797C25.7423 5.04221 25.8985 4.85371 25.8008 4.6914C25.7029 4.5296 25.4468 4.58273 24.9349 4.69011C22.3193 5.23876 21.222 5.14021 19.9375 5.08724C18.4749 5.02695 15.3456 3.88161 11.8516 4.06251Z" fill="#131415"/>
<path id="Vector_2" d="M36.7019 28.562V3.4381H43.2467V22.932H54.9641V28.562H36.7019Z" fill="#131415"/>
<path id="Vector_3" d="M58.2129 28.562V3.4381H64.7577V28.562H58.2129Z" fill="#131415"/>
<path id="Vector_4" d="M67.8693 20.1169H74.4143C74.5549 23.0726 76.3847 24.0227 79.1645 24.0227C81.1351 24.0227 83.1759 23.319 83.1759 21.4541C83.1759 19.2373 79.5868 18.815 75.9625 17.7946C72.3733 16.7741 68.6083 15.1555 68.6083 10.5459C68.6083 5.05669 74.1328 2.91026 78.8479 2.91026C83.8444 2.91026 88.8763 5.3382 88.9115 11.0034H82.3665C82.4721 8.71619 80.3257 7.97725 78.32 7.97725C76.9125 7.97725 75.1532 8.46988 75.1532 10.1237C75.1532 12.059 78.7775 12.4109 82.4369 13.4313C86.0613 14.4517 89.7208 16.1407 89.7208 20.6799C89.7208 27.0489 84.3019 29.0897 78.7775 29.0897C73.0068 29.0897 67.9045 26.5562 67.8693 20.1169Z" fill="#131415"/>
<path id="Vector_5" d="M92.7115 28.562V3.4381H99.2563V12.5868H107.877V3.4381H114.422V28.562H107.877V18.2168H99.2563V28.562H92.7115Z" fill="#131415"/>
<path id="Vector_6" d="M118.863 28.562V3.4381H125.408V13.0795L133.677 3.4381H141.805L132.516 13.3258L142.967 28.562H134.839L128.082 18.0057L125.408 20.8206V28.562H118.863Z" fill="#131415"/>
<path id="Vector_7" d="M155.043 10.4052L152.193 19.2021H157.893L155.113 10.4052H155.043ZM142.376 28.562L151.771 3.4381H158.421L167.816 28.562H160.989L159.441 24.058H150.68L149.096 28.562H142.376Z" fill="#131415"/>
</g>
<defs>
<clipPath id="clip0_0_34">
<rect width="168" height="32" fill="white"/>
</clipPath>
</defs>
</svg>
