<svg preserveAspectRatio="none" width="100%" height="100%" overflow="visible" style="display: block;" viewBox="0 0 176 52" fill="none" xmlns="http://www.w3.org/2000/svg">
<g id="Store=Google Play, Style=Brand, Size=md">
<rect width="176" height="52" rx="5" fill="var(--fill-0, black)"/>
<path id="Google Play" d="M77.4758 28.2647C74.3131 28.2647 71.7352 30.5758 71.7352 33.7589C71.7352 36.9226 74.3131 39.2531 77.4758 39.2531C80.64 39.2531 83.2178 36.9226 83.2178 33.7589C83.2165 30.5758 80.6386 28.2647 77.4758 28.2647ZM77.4758 37.0905C75.7425 37.0905 74.2485 35.7173 74.2485 33.7602C74.2485 31.7824 75.7438 30.4298 77.4758 30.4298C79.2092 30.4298 80.7032 31.7824 80.7032 33.7602C80.7032 35.716 79.2092 37.0905 77.4758 37.0905ZM64.9511 28.2647C61.7883 28.2647 59.2105 30.5758 59.2105 33.7589C59.2105 36.9226 61.7883 39.2531 64.9511 39.2531C68.1152 39.2531 70.6931 36.9226 70.6931 33.7589C70.6931 30.5758 68.1152 28.2647 64.9511 28.2647ZM64.9511 37.0905C63.2178 37.0905 61.7238 35.7173 61.7238 33.7602C61.7238 31.7824 63.2191 30.4298 64.9511 30.4298C66.6845 30.4298 68.1784 31.7824 68.1784 33.7602C68.1798 35.716 66.6845 37.0905 64.9511 37.0905ZM50.0543 29.9518V32.2823H55.8608C55.6873 33.5935 55.2328 34.5508 54.5389 35.2161C53.6945 36.0273 52.3726 36.9226 50.0543 36.9226C46.48 36.9226 43.6857 34.1542 43.6857 30.7205C43.6857 27.2868 46.48 24.5184 50.0543 24.5184C51.9826 24.5184 53.3906 25.2469 54.43 26.1835L56.1419 24.539C54.6896 23.2071 52.7626 22.1879 50.0543 22.1879C45.1582 22.1879 41.042 26.0169 41.042 30.7205C41.042 35.424 45.1582 39.2531 50.0543 39.2531C52.6967 39.2531 54.6909 38.4198 56.2494 36.8593C57.8523 35.3194 58.3512 33.1543 58.3512 31.4064C58.3512 30.8664 58.3082 30.3665 58.2208 29.9505H50.0543V29.9518ZM110.981 31.7617C110.505 30.5344 109.053 28.2647 106.085 28.2647C103.138 28.2647 100.69 30.4918 100.69 33.7589C100.69 36.8386 103.117 39.2531 106.366 39.2531C108.987 39.2531 110.504 37.7132 111.133 36.8179L109.183 35.5687C108.533 36.4846 107.645 37.0879 106.366 37.0879C105.088 37.0879 104.178 36.526 103.593 35.4228L111.24 32.3844L110.981 31.7617ZM103.182 33.5935C103.117 31.4697 104.893 30.3885 106.172 30.3885C107.169 30.3885 108.013 30.8677 108.295 31.5537L103.182 33.5935ZM96.9649 38.9211H99.4768V22.7718H96.9649V38.9211ZM92.8473 29.4932H92.7613C92.1978 28.8473 91.114 28.2647 89.7504 28.2647C86.8902 28.2647 84.2694 30.6791 84.2694 33.7808C84.2694 36.8606 86.8902 39.2543 89.7504 39.2543C91.1153 39.2543 92.1978 38.6717 92.7613 38.0064H92.8473V38.797C92.8473 40.8989 91.6774 42.0228 89.7935 42.0228C88.2551 42.0228 87.3017 40.9622 86.9117 40.0669L84.7239 40.9415C85.3519 42.3974 87.0193 44.1879 89.7935 44.1879C92.7398 44.1879 95.2315 42.5227 95.2315 38.4637V28.5993H92.8487V29.4932H92.8473ZM89.967 37.0905C88.2336 37.0905 86.7827 35.6953 86.7827 33.7808C86.7827 31.8444 88.2336 30.4298 89.967 30.4298C91.6774 30.4298 93.0208 31.8444 93.0208 33.7808C93.0208 35.6953 91.6774 37.0905 89.967 37.0905ZM122.753 22.7718H116.74V38.9211H119.248V32.8029H122.751C125.532 32.8029 128.267 30.869 128.267 27.788C128.267 24.707 125.533 22.7718 122.753 22.7718ZM122.817 30.5551H119.248V25.0196H122.817C124.693 25.0196 125.758 26.5117 125.758 27.788C125.758 29.0385 124.693 30.5551 122.817 30.5551ZM138.324 28.2363C136.508 28.2363 134.626 29.0049 133.848 30.7088L136.075 31.6015C136.551 30.7088 137.438 30.4169 138.367 30.4169C139.665 30.4169 140.984 31.1649 141.006 32.4942V32.6608C140.551 32.4115 139.578 32.0381 138.389 32.0381C135.989 32.0381 133.544 33.3054 133.544 35.6734C133.544 37.8346 135.513 39.2259 137.718 39.2259C139.404 39.2259 140.335 38.4986 140.918 37.646H141.004V38.8926H143.428V32.7009C143.429 29.8356 141.199 28.2363 138.324 28.2363ZM138.021 37.0866C137.2 37.0866 136.053 36.6913 136.053 35.7147C136.053 34.4681 137.481 33.9901 138.714 33.9901C139.816 33.9901 140.336 34.2188 141.006 34.5301C140.811 36.0273 139.47 37.0866 138.021 37.0866ZM152.252 28.5889L149.375 35.5907H149.289L146.304 28.5889H143.601L148.078 38.3746L145.525 43.8184H148.142L155.042 28.5889H152.252ZM129.652 38.9211H132.16V22.7718H129.652V38.9211Z" fill="var(--fill-0, white)"/>
<g id="Get it on">
<path d="M49.3178 13.4986C49.3178 14.5679 48.9795 15.4191 48.3014 16.0546C47.5319 16.8101 46.5278 17.1878 45.2945 17.1878C44.113 17.1878 43.1075 16.805 42.2821 16.0393C41.4554 15.2724 41.042 14.3229 41.042 13.1897C41.042 12.0553 41.4554 11.1058 42.2821 10.3402C43.1075 9.57321 44.113 9.19037 45.2945 9.19037C45.8811 9.19037 46.4419 9.29756 46.9739 9.51068C47.5074 9.72506 47.9344 10.0096 48.2537 10.3657L47.5347 11.0395C46.993 10.4333 46.2468 10.1309 45.2931 10.1309C44.4309 10.1309 43.686 10.4142 43.0571 10.9808C42.4281 11.5474 42.1143 12.2837 42.1143 13.1885C42.1143 14.0932 42.4281 14.8295 43.0571 15.3961C43.686 15.9627 44.4309 16.246 45.2931 16.246C46.2072 16.246 46.9699 15.9615 47.5797 15.391C47.9753 15.0197 48.2045 14.5029 48.2659 13.8406H45.2931V12.9205H49.2591C49.3001 13.1208 49.3178 13.3135 49.3178 13.4986Z" fill="var(--fill-0, white)"/>
<path d="M55.6073 10.3007H51.8801V12.7278H55.2417V13.6479H51.8801V16.0751H55.6073V17.0169H50.8282V9.36017H55.6073V10.3007Z" fill="var(--fill-0, white)"/>
<path d="M60.0425 17.0169H58.9906V10.3007H56.7041V9.36017H62.3291V10.3007H60.0425V17.0169Z" fill="var(--fill-0, white)"/>
<path d="M66.3987 17.0169V9.36017H67.4506V17.0169H66.3987Z" fill="var(--fill-0, white)"/>
<path d="M72.1153 17.0169H71.0634V10.3007H68.7769V9.36017H74.4019V10.3007H72.1153V17.0169Z" fill="var(--fill-0, white)"/>
<path d="M85.0499 16.0279C84.245 16.8012 83.2449 17.1879 82.0484 17.1879C80.852 17.1879 79.8519 16.8012 79.0484 16.0279C78.2434 15.2546 77.8423 14.3077 77.8423 13.1885C77.8423 12.0694 78.2434 11.1225 79.0484 10.3491C79.8519 9.57582 80.852 9.18788 82.0484 9.18788C83.2381 9.18788 84.2368 9.57709 85.0444 10.3543C85.8521 11.1314 86.2559 12.0757 86.2559 13.1885C86.2559 14.3077 85.8535 15.2546 85.0499 16.0279ZM79.8246 15.386C80.4304 15.9602 81.1712 16.2461 82.0484 16.2461C82.9257 16.2461 83.6679 15.959 84.2722 15.386C84.878 14.8117 85.1822 14.0792 85.1822 13.1885C85.1822 12.2978 84.878 11.5653 84.2722 10.991C83.6679 10.4168 82.9257 10.1309 82.0484 10.1309C81.1712 10.1309 80.4304 10.4181 79.8246 10.991C79.2203 11.5653 78.916 12.2978 78.916 13.1885C78.916 14.0792 79.2203 14.8117 79.8246 15.386Z" fill="var(--fill-0, white)"/>
<path d="M87.7321 17.0169V9.36017H89.0118L92.9901 15.3158H93.0351L92.9901 13.8406V9.36017H94.042V17.0169H92.9437L88.7813 10.7716H88.7362L88.7813 12.2467V17.0169H87.7321Z" fill="var(--fill-0, white)"/>
<path d="M49.3178 13.4986C49.3178 14.5679 48.9795 15.4191 48.3014 16.0546C47.5319 16.8101 46.5278 17.1878 45.2945 17.1878C44.113 17.1878 43.1075 16.805 42.2821 16.0393C41.4554 15.2724 41.042 14.3229 41.042 13.1897C41.042 12.0553 41.4554 11.1058 42.2821 10.3402C43.1075 9.57321 44.113 9.19037 45.2945 9.19037C45.8811 9.19037 46.4419 9.29756 46.9739 9.51068C47.5074 9.72506 47.9344 10.0096 48.2537 10.3657L47.5347 11.0395C46.993 10.4333 46.2468 10.1309 45.2931 10.1309C44.4309 10.1309 43.686 10.4142 43.0571 10.9808C42.4281 11.5474 42.1143 12.2837 42.1143 13.1885C42.1143 14.0932 42.4281 14.8295 43.0571 15.3961C43.686 15.9627 44.4309 16.246 45.2931 16.246C46.2072 16.246 46.9699 15.9615 47.5797 15.391C47.9753 15.0197 48.2045 14.5029 48.2659 13.8406H45.2931V12.9205H49.2591C49.3001 13.1208 49.3178 13.3135 49.3178 13.4986Z" stroke="var(--stroke-0, white)" stroke-width="0.2" stroke-miterlimit="10"/>
<path d="M55.6073 10.3007H51.8801V12.7278H55.2417V13.6479H51.8801V16.0751H55.6073V17.0169H50.8282V9.36017H55.6073V10.3007Z" stroke="var(--stroke-0, white)" stroke-width="0.2" stroke-miterlimit="10"/>
<path d="M60.0425 17.0169H58.9906V10.3007H56.7041V9.36017H62.3291V10.3007H60.0425V17.0169Z" stroke="var(--stroke-0, white)" stroke-width="0.2" stroke-miterlimit="10"/>
<path d="M66.3987 17.0169V9.36017H67.4506V17.0169H66.3987Z" stroke="var(--stroke-0, white)" stroke-width="0.2" stroke-miterlimit="10"/>
<path d="M72.1153 17.0169H71.0634V10.3007H68.7769V9.36017H74.4019V10.3007H72.1153V17.0169Z" stroke="var(--stroke-0, white)" stroke-width="0.2" stroke-miterlimit="10"/>
<path d="M85.0499 16.0279C84.245 16.8012 83.2449 17.1879 82.0484 17.1879C80.852 17.1879 79.8519 16.8012 79.0484 16.0279C78.2434 15.2546 77.8423 14.3077 77.8423 13.1885C77.8423 12.0694 78.2434 11.1225 79.0484 10.3491C79.8519 9.57582 80.852 9.18788 82.0484 9.18788C83.2381 9.18788 84.2368 9.57709 85.0444 10.3543C85.8521 11.1314 86.2559 12.0757 86.2559 13.1885C86.2559 14.3077 85.8535 15.2546 85.0499 16.0279ZM79.8246 15.386C80.4304 15.9602 81.1712 16.2461 82.0484 16.2461C82.9257 16.2461 83.6679 15.959 84.2722 15.386C84.878 14.8117 85.1822 14.0792 85.1822 13.1885C85.1822 12.2978 84.878 11.5653 84.2722 10.991C83.6679 10.4168 82.9257 10.1309 82.0484 10.1309C81.1712 10.1309 80.4304 10.4181 79.8246 10.991C79.2203 11.5653 78.916 12.2978 78.916 13.1885C78.916 14.0792 79.2203 14.8117 79.8246 15.386Z" stroke="var(--stroke-0, white)" stroke-width="0.2" stroke-miterlimit="10"/>
<path d="M87.7321 17.0169V9.36017H89.0118L92.9901 15.3158H93.0351L92.9901 13.8406V9.36017H94.042V17.0169H92.9437L88.7813 10.7716H88.7362L88.7813 12.2467V17.0169H87.7321Z" stroke="var(--stroke-0, white)" stroke-width="0.2" stroke-miterlimit="10"/>
</g>
<g id="Google Play logo" filter="url(#filter0_ii_0_42)">
<path id="Vector" d="M10.436 9.7994C10.145 10.1998 9.973 10.8212 9.973 11.6259V40.3767C9.973 41.1827 10.145 41.8028 10.436 42.2032L10.51 42.2968L22.899 26.1911V26.0013V25.8115L10.51 9.7045L10.436 9.7994Z" fill="url(#paint0_linear_0_42)"/>
<path id="Vector_2" d="M27.028 31.5614L22.899 26.1911V26.0013V25.8115L27.029 20.4425L27.122 20.5114L32.015 24.1254C33.412 25.1576 33.412 26.8463 32.015 27.8798L27.122 31.4938L27.028 31.5614Z" fill="url(#paint1_linear_0_42)"/>
<g id="Vector_3" filter="url(#filter1_i_0_42)">
<path d="M27.122 31.4925L22.898 26.0013L10.436 42.2032C10.896 42.8376 11.657 42.9156 12.514 42.2838L27.122 31.4925Z" fill="url(#paint2_linear_0_42)"/>
</g>
<path id="Vector_4" d="M27.122 20.5101L12.514 9.7201C11.657 9.087 10.896 9.1663 10.436 9.8007L22.899 26.0026L27.122 20.5101Z" fill="url(#paint3_linear_0_42)"/>
</g>
</g>
<defs>
<filter id="filter0_ii_0_42" x="9.973" y="9.2832" width="23.0897" height="33.437" filterUnits="userSpaceOnUse" color-interpolation-filters="sRGB">
<feFlood flood-opacity="0" result="BackgroundImageFix"/>
<feBlend mode="normal" in="SourceGraphic" in2="BackgroundImageFix" result="shape"/>
<feColorMatrix in="SourceAlpha" type="matrix" values="0 0 0 0 0 0 0 0 0 0 0 0 0 0 0 0 0 0 127 0" result="hardAlpha"/>
<feOffset dy="-0.15"/>
<feComposite in2="hardAlpha" operator="arithmetic" k2="-1" k3="1"/>
<feColorMatrix type="matrix" values="0 0 0 0 0 0 0 0 0 0 0 0 0 0 0 0 0 0 0.12 0"/>
<feBlend mode="normal" in2="shape" result="effect1_innerShadow_0_42"/>
<feColorMatrix in="SourceAlpha" type="matrix" values="0 0 0 0 0 0 0 0 0 0 0 0 0 0 0 0 0 0 127 0" result="hardAlpha"/>
<feOffset dy="0.15"/>
<feComposite in2="hardAlpha" operator="arithmetic" k2="-1" k3="1"/>
<feColorMatrix type="matrix" values="0 0 0 0 1 0 0 0 0 1 0 0 0 0 1 0 0 0 0.25 0"/>
<feBlend mode="normal" in2="effect1_innerShadow_0_42" result="effect2_innerShadow_0_42"/>
</filter>
<filter id="filter1_i_0_42" x="10.436" y="26.0013" width="16.686" height="16.7189" filterUnits="userSpaceOnUse" color-interpolation-filters="sRGB">
<feFlood flood-opacity="0" result="BackgroundImageFix"/>
<feBlend mode="normal" in="SourceGraphic" in2="BackgroundImageFix" result="shape"/>
<feColorMatrix in="SourceAlpha" type="matrix" values="0 0 0 0 0 0 0 0 0 0 0 0 0 0 0 0 0 0 127 0" result="hardAlpha"/>
<feOffset dy="-0.15"/>
<feComposite in2="hardAlpha" operator="arithmetic" k2="-1" k3="1"/>
<feColorMatrix type="matrix" values="0 0 0 0 0 0 0 0 0 0 0 0 0 0 0 0 0 0 0.08 0"/>
<feBlend mode="normal" in2="shape" result="effect1_innerShadow_0_42"/>
</filter>
<linearGradient id="paint0_linear_0_42" x1="21.8008" y1="11.3217" x2="0.714123" y2="27.5422" gradientUnits="userSpaceOnUse">
<stop stop-color="#00A0FF"/>
<stop offset="0.0066" stop-color="#00A1FF"/>
<stop offset="0.2601" stop-color="#00BEFF"/>
<stop offset="0.5122" stop-color="#00D2FF"/>
<stop offset="0.7604" stop-color="#00DFFF"/>
<stop offset="1" stop-color="#00E3FF"/>
</linearGradient>
<linearGradient id="paint1_linear_0_42" x1="33.8335" y1="26.0013" x2="9.6376" y2="26.0013" gradientUnits="userSpaceOnUse">
<stop stop-color="#FFE000"/>
<stop offset="0.4087" stop-color="#FFBD00"/>
<stop offset="0.7754" stop-color="#FFA500"/>
<stop offset="1" stop-color="#FF9C00"/>
</linearGradient>
<linearGradient id="paint2_linear_0_42" x1="24.8281" y1="28.9834" x2="-3.76808" y2="50.9804" gradientUnits="userSpaceOnUse">
<stop stop-color="#FF3A44"/>
<stop offset="1" stop-color="#C31162"/>
</linearGradient>
<linearGradient id="paint3_linear_0_42" x1="7.2974" y1="0.22984" x2="20.0664" y2="10.0521" gradientUnits="userSpaceOnUse">
<stop stop-color="#32A071"/>
<stop offset="0.0685" stop-color="#2DA771"/>
<stop offset="0.4762" stop-color="#15CF74"/>
<stop offset="0.8009" stop-color="#06E775"/>
<stop offset="1" stop-color="#00F076"/>
</linearGradient>
</defs>
</svg>
