<svg width="126" height="24" viewBox="0 0 126 24" fill="none" xmlns="http://www.w3.org/2000/svg">
<path d="M10.7324 4.89435e-10C15.6328 4.29786e-07 18.083 0.000189381 19.6055 1.52246C21.128 3.04495 21.1279 5.49565 21.1279 10.3965V12.6602C21.1279 15.5533 21.1282 17.0007 20.4463 18.1973C19.7643 19.3936 18.52 20.1312 16.0313 21.6055L15.8633 21.7051C13.2803 23.2352 11.9885 23.9999 10.5645 24C9.14039 24 7.84857 23.2352 5.26563 21.7051L5.09766 21.6055C2.60856 20.1309 1.36357 19.3938 0.681641 18.1973C-0.000248842 17.0008 -1.09437e-08 15.5539 1.56979e-10 12.6611V10.3965C2.22999e-08 5.49573 6.03776e-05 3.04497 1.52246 1.52246C3.04496 -4.01969e-05 5.49563 -4.27957e-07 10.3965 4.89435e-10H10.7324ZM8.88867 14.3564C6.26836 14.4921 5.41511 14.6278 4.04395 14.9443C2.67405 15.2606 1.6995 16.2085 1.57617 16.3906C1.4787 16.5353 1.4384 16.6679 1.51465 16.7529C1.79905 17.0695 2.6592 17.5583 3.31738 17.7754C4.14032 18.0467 6.05558 18.3809 7.60938 18.3809C9.16365 18.3808 13.8257 17.3856 15.1055 17.1143C16.1289 16.8974 17.0955 17.0238 17.4512 17.1143L18.7217 17.3984C19.1337 17.4906 19.3395 17.5367 19.4131 17.4102C19.4867 17.2836 19.3516 17.1345 19.0811 16.8369C19.0288 16.7794 18.9773 16.725 18.9268 16.6738C18.6194 16.3626 18.4654 16.2067 18.4639 16.127C18.4629 16.0469 18.6249 15.8696 18.9482 15.5156C18.9908 15.4691 19.0322 15.4212 19.0723 15.373C19.3067 15.0912 19.4239 14.9499 19.3506 14.8281C19.2772 14.7068 19.0851 14.7476 18.7012 14.8281C16.7395 15.2396 15.9165 15.1647 14.9531 15.125C13.8562 15.0798 11.5092 14.2208 8.88867 14.3564ZM8.88867 8.70117C6.26834 8.83683 5.41511 8.97253 4.04395 9.28906C2.67302 9.60555 1.69837 10.5552 1.57617 10.7363C1.47878 10.8809 1.43868 11.0127 1.51465 11.0977C1.79905 11.4142 2.6592 11.9031 3.31738 12.1201C4.14026 12.3914 6.0555 12.7256 7.60938 12.7256C9.16365 12.7255 13.8257 11.7313 15.1055 11.46C16.129 11.243 17.0956 11.3695 17.4512 11.46L18.7217 11.7441C19.1332 11.8362 19.3393 11.8819 19.4131 11.7559C19.4867 11.6293 19.3516 11.4802 19.0811 11.1826C19.0288 11.1251 18.9773 11.0707 18.9268 11.0195C18.6196 10.7085 18.4656 10.5525 18.4639 10.4727C18.4623 10.3929 18.6243 10.2151 18.9482 9.86035C18.9908 9.81378 19.0322 9.76597 19.0723 9.71777C19.3066 9.43605 19.4238 9.29553 19.3506 9.17383C19.2773 9.05214 19.0854 9.09225 18.7012 9.17285C16.7395 9.58435 15.9166 9.50945 14.9531 9.46973C13.8562 9.42451 11.5092 8.56551 8.88867 8.70117ZM8.88867 3.04688C6.26836 3.18253 5.4151 3.31823 4.04395 3.63477C2.67387 3.9511 1.69928 4.89913 1.57617 5.08105C1.47867 5.22575 1.43833 5.35838 1.51465 5.44336C1.79905 5.75991 2.6592 6.24778 3.31738 6.46484C4.14018 6.73616 6.05542 7.07129 7.60938 7.07129C9.16365 7.07119 13.8257 6.076 15.1055 5.80469C16.1289 5.5878 17.0955 5.71426 17.4512 5.80469L18.7217 6.08887C19.1336 6.18098 19.3395 6.22707 19.4131 6.10059C19.4867 5.97398 19.3516 5.82494 19.0811 5.52734C19.0288 5.46982 18.9773 5.41541 18.9268 5.36426C18.6194 5.05307 18.4654 4.89718 18.4639 4.81738C18.4628 4.73743 18.6248 4.56017 18.9482 4.20605C18.9907 4.15952 19.0322 4.11163 19.0723 4.06348C19.3067 3.78166 19.4239 3.64028 19.3506 3.51855C19.2772 3.3972 19.0851 3.43705 18.7012 3.51758C16.7395 3.92907 15.9165 3.85516 14.9531 3.81543C13.8562 3.77021 11.5092 2.91121 8.88867 3.04688Z" fill="#191B1F"/>
<path d="M27.5264 21.4215V2.5786H32.435V17.199H41.2231V21.4215H27.5264Z" fill="#191B1F"/>
<path d="M43.6597 21.4215V2.5786H48.5683V21.4215H43.6597Z" fill="#191B1F"/>
<path d="M50.902 15.0877H55.8107C55.9162 17.3045 57.2885 18.0171 59.3734 18.0171C60.8513 18.0171 62.3819 17.4893 62.3819 16.0906C62.3819 14.428 59.6901 14.1113 56.9719 13.346C54.28 12.5806 51.4562 11.3667 51.4562 7.90949C51.4562 3.79256 55.5996 2.18274 59.1359 2.18274C62.8833 2.18274 66.6572 4.00369 66.6836 8.25257H61.7749C61.8541 6.53718 60.2443 5.98298 58.74 5.98298C57.6844 5.98298 56.3649 6.35245 56.3649 7.59281C56.3649 9.04429 59.0831 9.3082 61.8277 10.0735C64.546 10.8388 67.2906 12.1056 67.2906 15.51C67.2906 20.2867 63.2264 21.8173 59.0831 21.8173C54.7551 21.8173 50.9284 19.9172 50.902 15.0877Z" fill="#191B1F"/>
<path d="M69.5336 21.4215V2.5786H74.4422V9.44015H80.9079V2.5786H85.8166V21.4215H80.9079V13.6626H74.4422V21.4215H69.5336Z" fill="#191B1F"/>
<path d="M89.1473 21.4215V2.5786H94.056V9.80962L100.258 2.5786H106.354L99.3869 9.99435L107.225 21.4215H101.129L96.0617 13.5043L94.056 15.6155V21.4215H89.1473Z" fill="#191B1F"/>
<path d="M116.282 7.80393L114.145 14.4016H118.42L116.335 7.80393H116.282ZM106.782 21.4215L113.828 2.5786H118.816L125.862 21.4215H120.742L119.581 18.0435H113.01L111.822 21.4215H106.782Z" fill="#191B1F"/>
</svg>